<svg width="24" height="19" viewBox="0 0 24 19" fill="none" xmlns="http://www.w3.org/2000/svg">
<path d="M3.76113 0H0.651625C0.291742 0 0 0.292035 0 0.652279V3.29571C0 3.65596 0.291742 3.94799 0.651625 3.94799H3.76113C4.12101 3.94799 4.41276 3.65596 4.41276 3.29571V0.652279C4.41276 0.292035 4.12101 0 3.76113 0Z" fill="#DA0081"/>
<path d="M22.7051 0H20.03C19.6642 0 19.3783 0.29753 19.3783 0.652279V11.3519C19.3783 11.5693 19.0925 11.6494 18.9897 11.4549L12.7706 0.286087C12.6678 0.102991 12.4849 0 12.2676 0H7.82059C7.45477 0 7.16895 0.29753 7.16895 0.652279V17.7488C7.16895 18.115 7.4662 18.4011 7.82059 18.4011H10.4957C10.8615 18.4011 11.1473 18.1036 11.1473 17.7488V6.72875C11.1473 6.51133 11.4331 6.43122 11.536 6.62576L17.9265 18.1264C18.0293 18.3095 18.2123 18.4125 18.4295 18.4125H22.6822C23.048 18.4125 23.3338 18.115 23.3338 17.7602V0.652279C23.3338 0.286087 23.0366 0 22.6822 0H22.7051Z" fill="#200020"/>
</svg>
